<svg width="938" height="105" viewBox="0 0 938 105" fill="none" xmlns="http://www.w3.org/2000/svg">
<path d="M4.64 102C3.53067 102 2.592 101.659 1.824 100.976C1.14133 100.208 0.8 99.2693 0.8 98.16V5.87199C0.8 4.67733 1.14133 3.73866 1.824 3.05599C2.592 2.37333 3.53067 2.032 4.64 2.032H30.24C36.4693 2.032 41.9733 3.39733 46.752 6.128C51.616 8.85867 55.4133 12.656 58.144 17.52C60.8747 22.2987 62.24 27.8027 62.24 34.032C62.24 40.2613 60.8747 45.808 58.144 50.672C55.4133 55.536 51.616 59.3333 46.752 62.064C41.9733 64.7947 36.4693 66.16 30.24 66.16H8.48V98.16C8.48 99.2693 8.13867 100.208 7.456 100.976C6.77333 101.659 5.83467 102 4.64 102ZM8.48 58.48H30.24C35.0187 58.48 39.2 57.456 42.784 55.408C46.4533 53.2747 49.312 50.3733 51.36 46.704C53.4933 43.0347 54.56 38.8107 54.56 34.032C54.56 29.2533 53.4933 25.072 51.36 21.488C49.312 17.8187 46.4533 14.96 42.784 12.912C39.2 10.7787 35.0187 9.712 30.24 9.712H8.48V58.48ZM106.076 102C104.967 102 104.028 101.659 103.26 100.976C102.577 100.208 102.236 99.2693 102.236 98.16V64.624L66.908 8.048C66.3107 7.02399 66.0547 6.08533 66.14 5.23199C66.3107 4.29333 66.6947 3.52533 67.292 2.92799C67.9747 2.33066 68.828 2.032 69.852 2.032C70.5347 2.032 71.0893 2.16 71.516 2.41599C72.028 2.67199 72.4973 3.05599 72.924 3.56799L108.892 62.192H103.26L138.716 4.464C139.313 3.52533 139.868 2.88533 140.38 2.544C140.977 2.20266 141.66 2.032 142.428 2.032C143.452 2.032 144.263 2.33066 144.86 2.92799C145.457 3.52533 145.799 4.29333 145.884 5.23199C146.055 6.17066 145.841 7.10933 145.244 8.048L109.916 64.624V98.16C109.916 99.2693 109.532 100.208 108.764 100.976C108.081 101.659 107.185 102 106.076 102ZM163.14 102C162.116 102 161.22 101.659 160.452 100.976C159.684 100.208 159.3 99.2693 159.3 98.16V5.87199C159.3 4.76266 159.684 3.86666 160.452 3.184C161.22 2.416 162.116 2.032 163.14 2.032C164.249 2.032 165.145 2.416 165.828 3.184C166.596 3.86666 166.98 4.76266 166.98 5.87199V95.088H219.588C220.783 95.088 221.721 95.4293 222.404 96.112C223.087 96.7093 223.428 97.52 223.428 98.544C223.428 99.568 223.087 100.421 222.404 101.104C221.721 101.701 220.783 102 219.588 102H163.14ZM250.576 102C249.467 102 248.528 101.659 247.76 100.976C247.077 100.208 246.736 99.2693 246.736 98.16V64.624L211.408 8.048C210.811 7.02399 210.555 6.08533 210.64 5.23199C210.811 4.29333 211.195 3.52533 211.792 2.92799C212.475 2.33066 213.328 2.032 214.352 2.032C215.035 2.032 215.589 2.16 216.016 2.41599C216.528 2.67199 216.997 3.05599 217.424 3.56799L253.392 62.192H247.76L283.216 4.464C283.813 3.52533 284.368 2.88533 284.88 2.544C285.477 2.20266 286.16 2.032 286.928 2.032C287.952 2.032 288.763 2.33066 289.36 2.92799C289.957 3.52533 290.299 4.29333 290.384 5.23199C290.555 6.17066 290.341 7.10933 289.744 8.048L254.416 64.624V98.16C254.416 99.2693 254.032 100.208 253.264 100.976C252.581 101.659 251.685 102 250.576 102ZM307.64 102C306.531 102 305.592 101.659 304.824 100.976C304.141 100.208 303.8 99.2693 303.8 98.16V5.87199C303.8 4.67733 304.141 3.73866 304.824 3.05599C305.592 2.37333 306.531 2.032 307.64 2.032H333.24C339.469 2.032 344.973 3.39733 349.752 6.128C354.616 8.85867 358.413 12.656 361.144 17.52C363.875 22.2987 365.24 27.8027 365.24 34.032C365.24 40.2613 363.875 45.808 361.144 50.672C358.413 55.536 354.616 59.3333 349.752 62.064C344.973 64.7947 339.469 66.16 333.24 66.16H311.48V98.16C311.48 99.2693 311.139 100.208 310.456 100.976C309.773 101.659 308.835 102 307.64 102ZM311.48 58.48H333.24C338.019 58.48 342.2 57.456 345.784 55.408C349.453 53.2747 352.312 50.3733 354.36 46.704C356.493 43.0347 357.56 38.8107 357.56 34.032C357.56 29.2533 356.493 25.072 354.36 21.488C352.312 17.8187 349.453 14.96 345.784 12.912C342.2 10.7787 338.019 9.712 333.24 9.712H311.48V58.48ZM426.228 103.28C419.401 103.28 412.959 101.957 406.9 99.312C400.927 96.5813 395.636 92.8693 391.028 88.176C386.42 83.3973 382.793 77.936 380.148 71.792C377.503 65.5627 376.18 58.9493 376.18 51.952C376.18 45.04 377.46 38.512 380.02 32.368C382.58 26.1387 386.121 20.6773 390.644 15.984C395.252 11.2053 400.585 7.49333 406.644 4.84799C412.703 2.11733 419.231 0.751999 426.228 0.751999C432.116 0.751999 437.705 1.69066 442.996 3.56799C448.287 5.44533 453.236 8.304 457.844 12.144C458.612 12.7413 458.996 13.5947 458.996 14.704C458.996 15.728 458.655 16.6667 457.972 17.52C457.289 18.288 456.351 18.672 455.156 18.672C454.815 18.672 454.473 18.6293 454.132 18.544C453.791 18.3733 453.449 18.2027 453.108 18.032C452.767 17.776 452.383 17.4773 451.956 17.136C448.543 14.064 444.66 11.8453 440.308 10.48C435.956 9.11466 431.263 8.432 426.228 8.432C420.511 8.432 415.092 9.62667 409.972 12.016C404.852 14.32 400.329 17.52 396.404 21.616C392.479 25.6267 389.407 30.2347 387.188 35.44C384.969 40.6453 383.86 46.1493 383.86 51.952C383.86 57.9253 384.969 63.5573 387.188 68.848C389.407 74.1387 392.436 78.7893 396.276 82.8C400.201 86.8107 404.724 89.968 409.844 92.272C414.964 94.4907 420.425 95.6 426.228 95.6C431.263 95.6 435.956 94.832 440.308 93.296C444.745 91.76 448.884 89.4133 452.724 86.256C453.407 85.6587 454.217 85.4453 455.156 85.616C456.095 85.7867 456.905 86.2133 457.588 86.896C458.271 87.5787 458.612 88.4747 458.612 89.584C458.612 90.096 458.569 90.5653 458.484 90.992C458.399 91.4187 458.143 91.8453 457.716 92.272C453.535 96.4533 448.671 99.3547 443.124 100.976C437.663 102.512 432.031 103.28 426.228 103.28ZM483.265 102C482.156 102 481.217 101.659 480.449 100.976C479.766 100.208 479.425 99.2693 479.425 98.16V5.87199C479.425 4.76266 479.766 3.86666 480.449 3.184C481.217 2.416 482.156 2.032 483.265 2.032C484.374 2.032 485.27 2.416 485.953 3.184C486.721 3.86666 487.105 4.76266 487.105 5.87199V48.112H551.745V5.87199C551.745 4.76266 552.086 3.86666 552.769 3.184C553.537 2.416 554.476 2.032 555.585 2.032C556.609 2.032 557.505 2.416 558.273 3.184C559.041 3.86666 559.425 4.76266 559.425 5.87199V98.16C559.425 99.2693 559.041 100.208 558.273 100.976C557.505 101.659 556.566 102 555.457 102C554.433 102 553.537 101.659 552.769 100.976C552.086 100.208 551.745 99.2693 551.745 98.16V55.024H487.105V98.16C487.105 99.2693 486.721 100.208 485.953 100.976C485.27 101.659 484.374 102 483.265 102ZM578.522 102C576.901 102 575.749 101.36 575.066 100.08C574.469 98.8 574.469 97.6053 575.066 96.496L613.85 4.71999C614.533 2.928 615.77 2.032 617.562 2.032C619.269 2.032 620.506 2.928 621.274 4.71999L660.186 96.496C660.869 97.6907 660.826 98.928 660.058 100.208C659.29 101.403 658.181 102 656.73 102C655.877 102 655.151 101.829 654.554 101.488C654.042 101.061 653.573 100.421 653.146 99.568L615.514 9.84H619.61L582.106 99.568C581.765 100.421 581.295 101.061 580.698 101.488C580.101 101.829 579.375 102 578.522 102ZM587.994 76.912L591.066 70H644.314L647.258 76.912H587.994ZM678.89 102C677.866 102 676.97 101.659 676.202 100.976C675.434 100.208 675.05 99.2693 675.05 98.16V5.87199C675.05 4.76266 675.434 3.86666 676.202 3.184C676.97 2.416 677.866 2.032 678.89 2.032C679.999 2.032 680.895 2.416 681.578 3.184C682.346 3.86666 682.73 4.76266 682.73 5.87199V52.848L732.394 3.184C732.821 2.75733 733.247 2.45866 733.674 2.28799C734.186 2.11733 734.741 2.032 735.338 2.032C736.447 2.032 737.343 2.416 738.026 3.184C738.709 3.86666 739.093 4.71999 739.178 5.744C739.263 6.768 738.879 7.74933 738.026 8.688L701.29 45.424L738.41 95.856C739.093 96.7947 739.349 97.776 739.178 98.8C739.007 99.7387 738.581 100.507 737.898 101.104C737.215 101.701 736.405 102 735.466 102C734.015 102 732.906 101.445 732.138 100.336L695.658 51.056L682.73 63.984V98.16C682.73 99.2693 682.346 100.208 681.578 100.976C680.895 101.659 679.999 102 678.89 102ZM758.053 104.048C756.176 104.048 754.597 103.408 753.317 102.128C752.122 100.933 751.525 99.3973 751.525 97.52C751.525 95.6427 752.165 94.1067 753.445 92.912C754.725 91.7173 756.261 91.12 758.053 91.12C759.845 91.12 761.338 91.76 762.533 93.04C763.813 94.2347 764.453 95.728 764.453 97.52C764.453 99.312 763.813 100.848 762.533 102.128C761.338 103.408 759.845 104.048 758.053 104.048ZM777.147 102C775.526 102 774.374 101.36 773.691 100.08C773.094 98.8 773.094 97.6053 773.691 96.496L812.475 4.71999C813.158 2.928 814.395 2.032 816.187 2.032C817.894 2.032 819.131 2.928 819.899 4.71999L858.811 96.496C859.494 97.6907 859.451 98.928 858.683 100.208C857.915 101.403 856.806 102 855.355 102C854.502 102 853.776 101.829 853.179 101.488C852.667 101.061 852.198 100.421 851.771 99.568L814.139 9.84H818.235L780.731 99.568C780.39 100.421 779.92 101.061 779.323 101.488C778.726 101.829 778 102 777.147 102ZM786.619 76.912L789.691 70H842.939L845.883 76.912H786.619ZM877.515 102C876.491 102 875.595 101.659 874.827 100.976C874.059 100.208 873.675 99.2693 873.675 98.16V5.87199C873.675 4.76266 874.059 3.86666 874.827 3.184C875.595 2.416 876.491 2.032 877.515 2.032C878.624 2.032 879.52 2.416 880.203 3.184C880.971 3.86666 881.355 4.76266 881.355 5.87199V95.088H933.963C935.158 95.088 936.096 95.4293 936.779 96.112C937.462 96.7093 937.803 97.52 937.803 98.544C937.803 99.568 937.462 100.421 936.779 101.104C936.096 101.701 935.158 102 933.963 102H877.515Z" fill="black"/>
</svg>
