<svg width="305" height="84" viewBox="0 0 305 84" fill="none" xmlns="http://www.w3.org/2000/svg">
<path d="M2.24 74C1.824 74 1.472 73.872 1.184 73.616C0.928 73.328 0.8 72.976 0.8 72.56V37.952C0.8 37.504 0.928 37.152 1.184 36.896C1.472 36.64 1.824 36.512 2.24 36.512H27.776C28.224 36.512 28.576 36.64 28.832 36.896C29.088 37.152 29.216 37.504 29.216 37.952V72.56C29.216 72.976 29.088 73.328 28.832 73.616C28.576 73.872 28.224 74 27.776 74C27.36 74 27.008 73.872 26.72 73.616C26.464 73.328 26.336 72.976 26.336 72.56V39.392H3.68V72.56C3.68 72.976 3.552 73.328 3.296 73.616C3.04 73.872 2.688 74 2.24 74ZM56.1436 74.48C53.3916 74.48 50.8476 74 48.5116 73.04C46.1756 72.08 44.1276 70.736 42.3676 69.008C40.6396 67.248 39.2956 65.2 38.3356 62.864C37.3756 60.528 36.8956 57.984 36.8956 55.232C36.8956 52.48 37.3756 49.952 38.3356 47.648C39.2956 45.312 40.6396 43.28 42.3676 41.552C44.1276 39.792 46.1756 38.432 48.5116 37.472C50.8476 36.512 53.3916 36.032 56.1436 36.032C58.8956 36.032 61.4236 36.512 63.7276 37.472C66.0636 38.432 68.0956 39.792 69.8236 41.552C71.5836 43.28 72.9436 45.312 73.9036 47.648C74.8636 49.952 75.3436 52.48 75.3436 55.232C75.3436 57.984 74.8636 60.528 73.9036 62.864C72.9436 65.2 71.5836 67.248 69.8236 69.008C68.0956 70.736 66.0636 72.08 63.7276 73.04C61.4236 74 58.8956 74.48 56.1436 74.48ZM56.1436 71.6C58.4476 71.6 60.5916 71.2 62.5756 70.4C64.5596 69.568 66.2876 68.416 67.7596 66.944C69.2636 65.44 70.4156 63.696 71.2156 61.712C72.0476 59.728 72.4636 57.568 72.4636 55.232C72.4636 52.928 72.0476 50.784 71.2156 48.8C70.4156 46.816 69.2636 45.088 67.7596 43.616C66.2876 42.112 64.5596 40.96 62.5756 40.16C60.5916 39.328 58.4476 38.912 56.1436 38.912C53.8076 38.912 51.6476 39.328 49.6636 40.16C47.6796 40.96 45.9356 42.112 44.4316 43.616C42.9596 45.088 41.8076 46.816 40.9756 48.8C40.1756 50.784 39.7756 52.928 39.7756 55.232C39.7756 57.568 40.1756 59.728 40.9756 61.712C41.8076 63.696 42.9596 65.44 44.4316 66.944C45.9356 68.416 47.6796 69.568 49.6636 70.4C51.6476 71.2 53.8076 71.6 56.1436 71.6ZM95.6908 60.944C92.9708 60.944 90.6028 60.352 88.5868 59.168C86.5708 57.952 85.0188 56.224 83.9308 53.984C82.8428 51.744 82.2988 49.056 82.2988 45.92V37.808C82.2988 37.392 82.4268 37.072 82.6828 36.848C82.9708 36.624 83.3228 36.512 83.7388 36.512C84.1868 36.512 84.5388 36.64 84.7948 36.896C85.0508 37.152 85.1788 37.456 85.1788 37.808V45.92C85.1788 48.448 85.5788 50.624 86.3788 52.448C87.2108 54.24 88.4108 55.632 89.9788 56.624C91.5468 57.584 93.4508 58.064 95.6908 58.064C97.6108 58.064 99.3708 57.84 100.971 57.392C102.571 56.944 103.851 56.336 104.811 55.568C105.803 54.768 106.299 53.888 106.299 52.928H108.123C107.995 54.496 107.339 55.888 106.155 57.104C105.003 58.288 103.499 59.232 101.643 59.936C99.8188 60.608 97.8348 60.944 95.6908 60.944ZM107.691 74C107.275 74 106.923 73.872 106.635 73.616C106.379 73.328 106.251 72.976 106.251 72.56V37.952C106.251 37.536 106.379 37.2 106.635 36.944C106.923 36.656 107.275 36.512 107.691 36.512C108.107 36.512 108.443 36.656 108.699 36.944C108.987 37.2 109.131 37.536 109.131 37.952V72.56C109.131 72.976 108.987 73.328 108.699 73.616C108.443 73.872 108.107 74 107.691 74ZM116.29 74C115.682 74 115.25 73.76 114.994 73.28C114.77 72.8 114.77 72.352 114.994 71.936L129.538 37.52C129.794 36.848 130.258 36.512 130.93 36.512C131.57 36.512 132.034 36.848 132.322 37.52L146.914 71.936C147.17 72.384 147.154 72.848 146.866 73.328C146.578 73.776 146.162 74 145.618 74C145.298 74 145.026 73.936 144.802 73.808C144.61 73.648 144.434 73.408 144.274 73.088L130.162 39.44H131.698L117.634 73.088C117.506 73.408 117.33 73.648 117.105 73.808C116.882 73.936 116.61 74 116.29 74ZM119.842 64.592L120.993 62H140.962L142.066 64.592H119.842ZM159.444 74C159.028 74 158.676 73.872 158.388 73.616C158.132 73.328 158.004 72.976 158.004 72.56V36.512H160.884V72.56C160.884 72.976 160.74 73.328 160.452 73.616C160.196 73.872 159.86 74 159.444 74ZM145.86 39.104C145.476 39.104 145.156 38.992 144.9 38.768C144.676 38.512 144.564 38.192 144.564 37.808C144.564 37.424 144.676 37.12 144.9 36.896C145.156 36.64 145.476 36.512 145.86 36.512H173.028C173.412 36.512 173.716 36.64 173.94 36.896C174.196 37.12 174.324 37.424 174.324 37.808C174.324 38.192 174.196 38.512 173.94 38.768C173.716 38.992 173.412 39.104 173.028 39.104H145.86ZM184.156 72.9688C181.031 71.6562 178.969 69.8438 177.969 67.5312C176.969 65.1562 176.625 62.625 176.938 59.9375C177.25 57.1875 178 54.4375 179.188 51.6875C180.438 48.9375 181.719 46.5 183.031 44.375C183.469 43.625 184.281 42.3438 185.469 40.5312C186.656 38.7188 187.906 36.8125 189.219 34.8125C190.594 32.75 191.875 30.8438 193.062 29.0938C194.312 27.2812 195.188 26.0312 195.688 25.3438C196.438 20.5312 197.938 16.7188 200.188 13.9062C202.438 11.0313 204.969 9.0625 207.781 8C210.656 6.9375 213.594 6.71875 216.594 7.34375C219.594 7.90625 222.219 9.25 224.469 11.375C226.719 13.4375 228.344 16.2188 229.344 19.7188C230.344 23.2188 230.25 27.3125 229.062 32C227.938 36.6875 225.5 41.9375 221.75 47.75C218 53.5625 212.5 59.8438 205.25 66.5938C204 67.7812 202.5 68.9375 200.75 70.0625C199.062 71.125 197.25 72 195.312 72.6875C193.438 73.375 191.531 73.7812 189.594 73.9062C187.656 74.0312 185.844 73.7188 184.156 72.9688ZM180.875 65.5625C181.5 68.375 182.688 70.125 184.438 70.8125C186.188 71.5 188.25 71.375 190.625 70.4375C193 69.5 195.594 67.9062 198.406 65.6562C201.219 63.4062 204.031 60.7812 206.844 57.7812C209.656 54.7188 212.344 51.4062 214.906 47.8438C217.469 44.2812 219.688 40.75 221.562 37.25C223.5 33.75 224.969 30.4062 225.969 27.2188C226.969 24.0312 227.281 21.2812 226.906 18.9688C226.594 16.5938 225.469 14.8125 223.531 13.625C221.656 12.4375 218.75 12.0937 214.812 12.5938C213.375 13.8438 211.469 15.6875 209.094 18.125C206.719 20.5 204.188 23.2188 201.5 26.2812C198.812 29.3438 196.125 32.6562 193.438 36.2188C190.75 39.7188 188.375 43.2188 186.312 46.7188C184.25 50.2188 182.688 53.5938 181.625 56.8438C180.562 60.0938 180.312 63 180.875 65.5625ZM291.219 82.625C289.219 79.4375 287.219 76.5312 285.219 73.9062C283.281 71.2812 281.25 68.75 279.125 66.3125C277 63.8125 274.75 61.3125 272.375 58.8125C270.062 56.3125 267.531 53.6562 264.781 50.8438C260.844 46.7188 257.562 43.6562 254.938 41.6562C252.375 39.6562 250.219 38.5 248.469 38.1875C246.781 37.875 245.375 38.375 244.25 39.6875C243.125 40.9375 242.031 42.8125 240.969 45.3125C239.906 47.75 238.781 50.7188 237.594 54.2188C236.406 57.7188 234.875 61.5312 233 65.6562C232.375 66.9688 231.656 68.5 230.844 70.25C230.094 71.9375 229.031 73.25 227.656 74.1875C226.594 74.875 226.125 74.5625 226.25 73.25C226.375 71.875 226.875 69.9375 227.75 67.4375C228.625 64.9375 229.719 62.125 231.031 59C232.406 55.8125 233.75 52.75 235.062 49.8125C236.375 46.875 237.531 44.3438 238.531 42.2188C239.531 40.0312 240.156 38.6875 240.406 38.1875C241.906 34.625 243.438 31.375 245 28.4375C246.562 25.4375 248.094 22.5 249.594 19.625C251.156 16.75 252.656 13.8125 254.094 10.8125C255.594 7.8125 256.969 4.5 258.219 0.875C258.781 0.5 259.281 0.40625 259.719 0.59375C260.156 0.71875 260.531 0.96875 260.844 1.34375C261.156 1.71875 261.344 2.1875 261.406 2.75C261.531 3.25 261.531 3.6875 261.406 4.0625C261.031 4.8125 260.438 6 259.625 7.625C258.875 9.1875 258.062 10.8438 257.188 12.5938C256.375 14.2812 255.594 15.9375 254.844 17.5625C254.094 19.125 253.531 20.3125 253.156 21.125C253.031 21.4375 252.781 22.0938 252.406 23.0938C252.031 24.0312 251.906 24.8125 252.031 25.4375C253.844 25.8125 256.094 25.6562 258.781 24.9688C261.531 24.2812 264.469 23.2812 267.594 21.9688C270.781 20.6562 274.062 19.1562 277.438 17.4688C280.875 15.7188 284.125 14 287.188 12.3125C290.312 10.625 293.125 9.0625 295.625 7.625C298.188 6.125 300.25 5 301.812 4.25C303.312 3.5 304.094 3.375 304.156 3.875C304.219 4.375 303.875 5.125 303.125 6.125C302.438 7.125 301.531 8.1875 300.406 9.3125C299.344 10.375 298.406 11.125 297.594 11.5625C296.969 11.9375 296.031 12.4687 294.781 13.1562C293.531 13.7812 292.219 14.4375 290.844 15.125C289.469 15.75 288.219 16.3438 287.094 16.9062C285.969 17.4688 285.219 17.8125 284.844 17.9375C283.156 18.6875 281.031 19.5312 278.469 20.4688C275.906 21.4062 273.219 22.4062 270.406 23.4688C267.656 24.5312 264.906 25.6875 262.156 26.9375C259.469 28.125 257.156 29.375 255.219 30.6875C254.719 31.0625 254.281 31.4375 253.906 31.8125C253.594 32.125 253.312 32.4688 253.062 32.8438C252.875 33.2188 252.906 33.5625 253.156 33.875C254.094 34.4375 255.531 35.5625 257.469 37.25C259.406 38.9375 261.594 40.9375 264.031 43.25C266.469 45.5625 269.031 48.125 271.719 50.9375C274.469 53.75 277.125 56.5938 279.688 59.4688C282.25 62.3438 284.594 65.1562 286.719 67.9062C288.844 70.6562 290.531 73.125 291.781 75.3125C293.094 77.5625 293.844 79.4375 294.031 80.9375C294.219 82.4375 293.625 83.3438 292.25 83.6562C292.125 83.5938 291.938 83.4375 291.688 83.1875C291.5 82.9375 291.344 82.75 291.219 82.625Z" fill="black"/>
</svg>
